# AST/ASF file generated using VICON BodyLanguage
# -----------------------------------------------
:version 1.10
:name VICON
:units
  mass 1.0
  length 0.45
  angle deg
:documentation
   .ast/.asf automatically generated from VICON data using
   VICON BodyBuilder and BodyLanguage model FoxedUp or BRILLIANT.MOD
:root
   order TX TY TZ RX RY RZ
   axis XYZ
   position 0 0 0  
   orientation 0 0 0 
:bonedata
  begin
     id 1 
     name lhipjoint
     direction 0.64773 -0.699417 0.302095 
     length 2.48597 
     axis 0 0 0  XYZ
  end
  begin
     id 2 
     name lfemur
     direction 0.34202 -0.939693 0  
     length 6.71947  
     axis 0 0 20  XYZ
    dof rx ry rz
    limits (-160.0 20.0)
           (-70.0 70.0)
           (-60.0 70.0)
  end
  begin
     id 3 
     name ltibia
     direction 0.34202 -0.939693 0   
     length 8.08777   
     axis 0 0 20   XYZ
    dof rx
    limits (-10.0 170.0)
  end
  begin
     id 4 
     name lfoot
     direction 0.0808503 -0.222134 0.971658   
     length 2.08264   
     axis -90 7.62852e-016 20   XYZ
    dof rx rz
    limits (-45.0 90.0)
           (-70.0 20.0)
  end
  begin
     id 5 
     name ltoes
     direction 1.53502e-011 -4.22007e-011 1   
     length 1.04662   
     axis -90 7.62852e-016 20   XYZ
    dof rx
    limits (-90.0 20.0)
  end
  begin
     id 6 
     name rhipjoint
     direction -0.610924 -0.726792 0.313919   
     length 2.39233  
     axis 0 0 0  XYZ 
  end
  begin
     id 7 
     name rfemur
     direction -0.34202 -0.939693 0   
     length 6.96955   
     axis 0 0 -20   XYZ
    dof rx ry rz
    limits (-160.0 20.0)
           (-70.0 70.0)
           (-70.0 60.0)
  end
  begin
     id 8 
     name rtibia
     direction -0.34202 -0.939693 0   
     length 8.19584   
     axis 0 0 -20   XYZ
    dof rx
    limits (-10.0 170.0)
 end
 begin
     id 9 
     name rfoot
     direction -0.077777 -0.213691 0.9738   
     length 2.07539  
     axis -90 -7.62852e-016 -20   XYZ
    dof rx rz
    limits (-45.0 90.0)
           (-20.0 70.0)
  end
  begin
     id 10 
     name rtoes
     direction -1.53558e-011 -4.22006e-011 1   
     length 1.04381   
     axis -90 -7.62852e-016 -20   XYZ
    dof rx
    limits (-90.0 20.0)
  end
  begin
     id 11 
     name lowerback
     direction -0.00971646 0.996074 0.0879841   
     length 1.67643   
     axis 0 0 0   XYZ
    dof rx ry rz
    limits (-20.0 45.0)
           (-30.0 30.0)
           (-30.0 30.0)
  end
  begin
     id 12 
     name upperback
     direction 0.0127391 0.991676 0.128127   
     length 1.63741   
     axis 0 0 0   XYZ
    dof rx ry rz
    limits (-20.0 45.0)
           (-30.0 30.0)
           (-30.0 30.0)
  end
  begin
     id 13 
     name thorax
     direction 0.0167583 0.996049 0.0872067   
     length 1.65931   
     axis 0 0 0   XYZ
    dof rx ry rz
    limits (-20.0 45.0)
           (-30.0 30.0)
           (-30.0 30.0)
  end
  begin
     id 14 
     name lowerneck
     direction -0.0317829 0.998312 0.0486079   
     length 1.79021   
     axis 0 0 0   XYZ
    dof rx ry rz
    limits (-20.0 45.0)
           (-30.0 30.0)
           (-30.0 30.0)
  end
  begin
     id 15 
     name upperneck
     direction 0.0896851 0.972452 -0.215159   
     length 1.78797   
     axis 0 0 0   XYZ
    dof rx ry rz
    limits (-20.0 45.0)
           (-30.0 30.0)
           (-30.0 30.0)
  end
  begin
     id 16
     name head
     direction 0.0310949 0.996503 -0.0775582  
     length 1.81549  
     axis 0 0 0   XYZ
    dof rx ry rz
    limits (-20.0 45.0)
           (-30.0 30.0)
           (-30.0 30.0)
  end
  begin
     id 17 
     name lclavicle
     direction 0.853638 0.502051 -0.138733  
     length 3.31627  
     axis 0 0 0   XYZ
    dof ry rz
    limits (-20.0 10.0)
           (0.0 20.0)
  end
  begin
     id 18 
     name lhumerus
     direction 1 -4.48962e-011 -1.41788e-018   
     length 5.54893   
     axis 180 -30 -90   XYZ
    dof rx ry rz
    limits (-60.0 90.0)
           (-90.0 90.0)
           (-90.0 90.0)
  end
  begin
     id 19
     name lradius
     direction 1 -4.48962e-011 -4.95754e-027   
     length 3.02898   
     axis 180 -30 -90   XYZ
    dof rx
    limits (-10.0 170.0)
  end
  begin
     id 20
     name lwrist
     direction 1 -4.48952e-011 -1.03764e-026   
     length 1.51449   
     axis 9.09556e-015 90 90   XYZ
    dof ry
    limits (-180.0 0.0)
 end
  begin
     id 21 
     name lhand
     direction 1 -4.4902e-011 -2.07528e-026   
     length 0.640951   
     axis 1.3242e-014 90 90   XYZ
    dof rx rz
    limits (-90.0 90.0)
           (-45.0 45.0)
  end
  begin
     id 22 
     name lfingers
     direction 1 -4.49014e-011 -4.15056e-026   
     length 0.516751   
     axis 2.64841e-014 90 90   XYZ
    dof rx
    limits (0.0 90.0)
  end
  begin
     id 23
     name lthumb
     direction 0.707107 -6.35008e-011 0.707107   
     length 0.741954   
     axis -90 45 2.85299e-015   XYZ
    dof rx rz
    limits (-45.0 45.0)
           (-45.0 45.0)
  end
  begin
     id 24 
     name rclavicle
     direction -0.888531 0.455324 -0.0565039   
     length 3.20126  
     axis 0 0 0   XYZ 
    dof ry rz
    limits (-10.0 20.0)
           (-20.0 0.0)
  end
  begin
     id 25 
     name rhumerus
     direction -1 -4.48946e-011 -8.98298e-028  
     length 5.3519   
     axis 180 30 90   XYZ
    dof rx ry rz
    limits (-90.0 60.0)
           (-90.0 90.0)
           (-90.0 90.0)
  end
  begin
     id 26 
     name rradius
     direction -1 -4.4899e-011 -3.18779e-027   
     length 3.02531   
     axis 180 30 90   XYZ
    dof rx
    limits (-10.0 170.0)
  end
  begin
     id 27 
     name rwrist
     direction -1 -4.4897e-011 -1.03764e-026   
     length 1.51266   
     axis 9.09556e-015 -90 -90   XYZ
    dof ry
    limits (-180.0 0.0)
  end
  begin
     id 28
     name rhand
     direction -1 -4.48941e-011 -2.07528e-026   
     length 0.78389   
     axis 1.3242e-014 -90 -90   XYZ
    dof rx rz
    limits (-90.0 90.0)
           (-45.0 45.0)
  end
  begin
     id 29
     name rfingers
     direction -1 -4.49012e-011 -4.15056e-026   
     length 0.631992   
     axis 2.64841e-014 -90 -90   XYZ
    dof rx
    limits (0.0 90.0)
  end
  begin
     id 30
     name rthumb
     direction -0.707107 -6.3496e-011 0.707107   
     length 0.907418   
     axis -90 -45 -2.85299e-015   XYZ
    dof rx rz
    limits (-45.0 45.0)
           (-45.0 45.0)
  end
:hierarchy
  begin
    root lhipjoint rhipjoint lowerback
    lhipjoint lfemur
    lfemur ltibia
    ltibia lfoot
    lfoot ltoes
    rhipjoint rfemur
    rfemur rtibia
    rtibia rfoot
    rfoot rtoes
    lowerback upperback
    upperback thorax
    thorax lowerneck lclavicle rclavicle
    lowerneck upperneck
    upperneck head
    lclavicle lhumerus
    lhumerus lradius
    lradius lwrist
    lwrist lhand lthumb
    lhand lfingers
    rclavicle rhumerus
    rhumerus rradius
    rradius rwrist
    rwrist rhand rthumb
    rhand rfingers
  end

#!OML:ASF E:\Style3\Style3.ASF
:FULLY-SPECIFIED
:DEGREES
2122
root 0.952404 17.7948 0.140065 -184.027 100.93 -201.103
lowerback -9.8518 -0.862658 0.383739
upperback -17.9476 0.667945 4.29248
thorax -14.4346 1.29057 4.42854
lowerneck -0.762591 1.76584 -4.67856
upperneck -22.5854 6.26882 15.4608
head -7.32574 2.58479 5.52431
rclavicle 1.11319e-014 -1.74931e-014
rhumerus -109.439 -182.494 -536.353
rradius 63.4969
rwrist -30.4166
rhand -2.8056 20.9411
rfingers 7.12502
rthumb 22.9005 -7.71899
lclavicle 1.11319e-014 -1.74931e-014
lhumerus -105.874 142.496 -161.341
lradius 76.5615
lwrist 63.4273
lhand 22.3406 22.5526
lfingers 7.12502
lthumb 46.7089 45.3459
rfemur -17.6172 10.7857 17.9614
rtibia 16.9783
rfoot -12.4904 -11.2719
rtoes -23.9401
lfemur -3.2122 9.74047 -16.5374
ltibia -3.18055e-015
lfoot -13.9764 6.67232
ltoes 4.42134
2123
root 0.960482 17.7971 0.137242 -184.377 101.191 -201.345
lowerback -9.67229 -0.907413 0.386975
upperback -17.916 0.626537 4.52622
thorax -14.5098 1.29143 4.69387
lowerneck -0.770099 1.86127 -4.69875
upperneck -22.3351 6.29042 15.2443
head -7.23952 2.61025 5.44447
rclavicle 1.19271e-014 -3.49861e-014
rhumerus -109.653 -183.084 -535.036
rradius 65.5001
rwrist -31.2502
rhand -2.71972 21.1818
rfingers 7.12502
rthumb 22.9829 -7.4681
lclavicle 1.19271e-014 -3.49861e-014
lhumerus -104.222 141.901 -159.695
lradius 73.9214
lwrist 62.4139
lhand 22.2873 22.5576
lfingers 7.12502
lthumb 46.6596 45.3723
rfemur -17.595 10.9791 18.05
rtibia 17.1147
rfoot -12.3603 -11.151
rtoes -24.1207
lfemur -3.00057 9.99325 -16.422
ltibia 9.54166e-015
lfoot -14.099 6.57275
ltoes 5.04659
2124
root 0.96746 17.7973 0.133662 -184.487 101.453 -201.37
lowerback -9.5306 -0.962613 0.363895
upperback -17.8838 0.570911 4.76169
thorax -14.56 1.28912 4.97699
lowerneck -0.803181 1.96592 -4.81051
upperneck -22.0316 6.32926 15.1125
head -7.13753 2.64769 5.40874
rclavicle 1.70955e-014 4.53229e-014
rhumerus -109.826 -183.612 -533.768
rradius 67.4944
rwrist -32.079
rhand -2.43762 21.7011
rfingers 7.12502
rthumb 23.2536 -6.91485
lclavicle 1.70955e-014 4.53229e-014
lhumerus -102.351 141.992 -157.515
lradius 71.2475
lwrist 60.5385
lhand 22.3602 22.3201
lfingers 7.12502
lthumb 46.7271 45.1057
rfemur -17.5868 11.1129 18.1074
rtibia 17.245
rfoot -12.2319 -11.0605
rtoes -24.7047
lfemur -2.82213 10.2492 -16.3584
ltibia -1.59028e-015
lfoot -14.2187 6.44456
ltoes 5.69163
2125
root 0.974863 17.7964 0.12641 -184.613 101.732 -201.437
lowerback -9.3917 -0.995717 0.452529
upperback -17.8643 0.542916 4.95771
thorax -14.6254 1.28204 5.15284
lowerneck -1.02336 2.06263 -5.05356
upperneck -21.4891 6.36174 15.2077
head -6.93219 2.69234 5.47191
rclavicle -1.94809e-014 1.03368e-014
rhumerus -109.956 -184.077 -532.564
rradius 69.5268
rwrist -32.9336
rhand -2.26299 21.8601
rfingers 7.12502
rthumb 23.4211 -6.73462
lclavicle -1.94809e-014 1.03368e-014
lhumerus -100.442 141.98 -155.345
lradius 68.6297
lwrist 59.0403
lhand 22.283 22.1502
lfingers 7.12502
lthumb 46.6557 44.9666
rfemur -17.6057 11.15 18.173
rtibia 17.3561
rfoot -12.2159 -10.8136
rtoes -24.6726
lfemur -2.67206 10.5221 -16.2977
ltibia 2.22639e-014
lfoot -14.3453 6.34655
ltoes 6.38197
2126
root 0.982922 17.7973 0.119865 -184.688 101.961 -201.535
lowerback -9.34922 -1.01068 0.531204
upperback -17.8489 0.53505 5.10445
thorax -14.6372 1.28161 5.27672
lowerneck -1.25696 2.12035 -5.32022
upperneck -21.0254 6.37854 15.3918
head -6.75236 2.72667 5.57342
rclavicle 2.38542e-015 -1.03368e-014
rhumerus -110.223 -184.491 -531.416
rradius 71.6007
rwrist -33.367
rhand -2.80084 21.646
rfingers 7.12502
rthumb 22.9051 -7.01357
lclavicle 2.38542e-015 -1.03368e-014
lhumerus -98.4039 141.988 -153.149
lradius 66.0133
lwrist 57.6243
lhand 21.9706 21.9682
lfingers 7.12502
lthumb 46.3662 44.9086
rfemur -17.7139 11.1824 18.2193
rtibia 17.4847
rfoot -12.1288 -10.6263
rtoes -24.5458
lfemur -2.62467 10.7502 -16.2513
ltibia -2.54444e-014
lfoot -14.4338 6.26138
ltoes 6.68618
2127
root 0.989308 17.7995 0.114691 -184.708 102.202 -201.615
lowerback -9.29831 -1.02187 0.563749
upperback -17.8608 0.536166 5.23739
thorax -14.6911 1.29348 5.41188
lowerneck -1.38878 2.14973 -5.45819
upperneck -20.6757 6.36849 15.5068
head -6.62079 2.73615 5.6313
rclavicle -4.41302e-014 -1.35174e-014
rhumerus -110.603 -184.906 -530.315
rradius 73.7458
rwrist -33.6255
rhand -3.81987 21.8981
rfingers 7.12502
rthumb 21.9269 -6.87925
lclavicle -4.41302e-014 -1.35174e-014
lhumerus -96.1398 142.236 -150.651
lradius 63.4344
lwrist 56.0936
lhand 21.7513 21.7869
lfingers 7.12502
lthumb 46.1629 44.8133
rfemur -17.9045 11.3285 18.2509
rtibia 17.6468
rfoot -12.0443 -10.5293
rtoes -24.3678
lfemur -2.61814 10.9921 -16.2152
ltibia -1.59028e-015
lfoot -14.4954 6.17596
ltoes 7.25061
2128
root 0.996394 17.797 0.108143 -184.744 102.447 -201.654
lowerback -9.21539 -1.02709 0.590284
upperback -17.7915 0.532614 5.38767
thorax -14.6578 1.2975 5.56792
lowerneck -1.74662 2.15294 -5.54065
upperneck -20.3384 6.32524 15.5591
head -6.44653 2.74132 5.66355
rclavicle -3.18055e-015 1.82882e-014
rhumerus -110.978 -185.132 -529.525
rradius 75.9916
rwrist -33.7637
rhand -4.59098 22.4485
rfingers 7.12502
rthumb 21.1864 -6.41381
lclavicle -3.18055e-015 1.82882e-014
lhumerus -93.7512 142.403 -148.002
lradius 60.8888
lwrist 54.8774
lhand 21.4192 21.889
lfingers 7.12502
lthumb 45.8548 45.0438
rfemur -18.0405 11.3594 18.3042
rtibia 17.841
rfoot -11.9471 -10.4346
rtoes -24.8421
lfemur -2.52424 11.2339 -16.1802
ltibia -3.18055e-015
lfoot -14.6465 6.02762
ltoes 8.29401
2129
root 1.00464 17.7916 0.10197 -184.79 102.673 -201.721
lowerback -9.13934 -1.01889 0.610586
upperback -17.627 0.526262 5.51547
thorax -14.4933 1.28829 5.69764
lowerneck -2.75004 2.10918 -5.55002
upperneck -19.7394 6.19574 15.5886
head -6.06327 2.74093 5.68391
rclavicle -2.06736e-014 1.51076e-014
rhumerus -111.533 -185.139 -528.998
rradius 78.3356
rwrist -33.676
rhand -4.56498 22.5387
rfingers 7.12502
rthumb 21.2113 -6.32078
lclavicle -2.06736e-014 1.51076e-014
lhumerus -91.0957 142.562 -145.199
lradius 58.2954
lwrist 53.7865
lhand 21.0344 21.6176
lfingers 7.12502
lthumb 45.4975 44.9185
rfemur -18.1852 11.4249 18.3512
rtibia 18.0402
rfoot -11.8138 -10.3893
rtoes -25.4859
lfemur -2.45221 11.4556 -16.1517
ltibia 1.59028e-014
lfoot -14.7543 5.91047
ltoes 9.02796
2130
root 1.01337 17.7896 0.0958735 -184.74 102.9 -201.695
lowerback -9.16215 -1.1529 0.656681
upperback -17.7308 0.402905 5.86067
thorax -14.6197 1.27059 6.07645
lowerneck -2.14114 2.33372 -6.25458
upperneck -19.5047 6.43815 15.8268
head -6.14834 2.85729 5.86294
rclavicle 9.54166e-015 1.74931e-014
rhumerus -111.559 -185.639 -528.23
rradius 80.7135
rwrist -33.5601
rhand -4.03566 22.4223
rfingers 7.12502
rthumb 21.7197 -6.37922
lclavicle 9.54166e-015 1.74931e-014
lhumerus -89.5897 143.119 -142.999
lradius 55.8522
lwrist 52.8263
lhand 20.589 21.3443
lfingers 7.12502
lthumb 45.0834 44.8109
rfemur -18.3318 11.4995 18.3612
rtibia 18.2363
rfoot -11.7677 -10.2558
rtoes -25.5522
lfemur -2.38927 11.6798 -16.1477
ltibia 1.59028e-014
lfoot -14.8092 5.82406
ltoes 9.44782
2131
root 1.0204 17.7903 0.0884749 -184.507 103.105 -201.478
lowerback -9.08603 -1.21706 0.616277
upperback -17.7482 0.346099 6.08848
thorax -14.6949 1.27631 6.36652
lowerneck -2.1121 2.43241 -6.59884
upperneck -19.2243 6.52022 15.9414
head -6.08673 2.913 5.95217
rclavicle -4.37326e-014 6.52014e-014
rhumerus -111.68 -185.811 -527.185
rradius 83.0946
rwrist -33.9909
rhand -3.84082 22.1385
rfingers 7.12502
rthumb 21.9068 -6.64128
lclavicle -4.37326e-014 6.52014e-014
lhumerus -87.7316 143.75 -140.441
lradius 53.5138
lwrist 51.8625
lhand 20.3632 20.9743
lfingers 7.12502
lthumb 44.8733 44.5236
rfemur -18.4646 11.4637 18.3323
rtibia 18.4054
rfoot -11.7889 -9.98599
rtoes -25.2803
lfemur -2.33994 11.8875 -16.1821
ltibia -3.18055e-015
lfoot -14.9369 5.68392
ltoes 9.91753
2132
root 1.02693 17.7912 0.082827 -184.227 103.282 -201.257
lowerback -8.98456 -1.23313 0.552673
upperback -17.7238 0.332642 6.20037
thorax -14.73 1.28886 6.5336
lowerneck -2.20902 2.44896 -6.44309
upperneck -19.2543 6.50584 15.68
head -6.06737 2.91206 5.83865
rclavicle 1.47101e-014 0
rhumerus -112.009 -185.806 -526.103
rradius 85.5395
rwrist -34.675
rhand -3.69885 21.4819
rfingers 7.12502
rthumb 22.0431 -7.28182
lclavicle 1.47101e-014 0
lhumerus -85.4361 144.488 -137.62
lradius 51.1371
lwrist 51.0056
lhand 20.3436 20.5791
lfingers 7.12502
lthumb 44.8551 44.1355
rfemur -18.6411 11.523 18.2747
rtibia 18.5453
rfoot -11.7275 -9.85504
rtoes -25.3721
lfemur -2.3481 12.0698 -16.2367
ltibia -1.11319e-014
lfoot -15.0428 5.6289
ltoes 10.0967
